<svg xmlns="http://www.w3.org/2000/svg" viewBox="0 0 390.7 307.52"><defs><style>.cls-1{fill:#ffb777;}.cls-2{fill:#4460aa;}.cls-3,.cls-6{fill:#fff;}.cls-4{opacity:0.5;}.cls-5{fill:#68e1fd;}.cls-6{stroke:#4460aa;stroke-miterlimit:10;stroke-width:0.5px;}.cls-7{fill:#ccc;opacity:0.4;}.cls-8{fill:#329199;}.cls-9{fill:#333;opacity:0.15;}.cls-10{fill:#64d7c0;}</style></defs><g id="Layer_2" data-name="Layer 2"><g id="Layer_1-2" data-name="Layer 1"><circle class="cls-1" cx="239.98" cy="150.72" r="150.72"/><rect class="cls-2" x="44.75" y="64.78" width="289.93" height="187.37" rx="18.63"/><path class="cls-3" d="M67.46,73H312A14.3,14.3,0,0,1,326.51,87V229.93A14.31,14.31,0,0,1,312,244H67.46a14.31,14.31,0,0,1-14.54-14.06V87A14.3,14.3,0,0,1,67.46,73Z"/><g class="cls-4"><rect class="cls-1" x="74.5" y="97.86" width="56.43" height="4.14"/><rect class="cls-1" x="74.5" y="105.86" width="34.44" height="3.89"/><rect class="cls-1" x="122.83" y="105.86" width="108.38" height="3.91"/><rect class="cls-1" x="92.41" y="113.89" width="47.36" height="4.1"/><rect class="cls-1" x="107.61" y="121.9" width="56.43" height="4.14"/><rect class="cls-1" x="167.72" y="121.9" width="47.29" height="4.59"/><rect class="cls-1" x="107.53" y="129.9" width="43.58" height="3.89"/><rect class="cls-1" x="155.28" y="129.9" width="89.91" height="4.31"/><rect class="cls-1" x="74.5" y="140.74" width="56.43" height="4.14"/><rect class="cls-1" x="74.5" y="148.75" width="34.44" height="3.89"/><rect class="cls-1" x="122.83" y="148.75" width="108.38" height="3.91"/><rect class="cls-1" x="92.41" y="156.75" width="47.36" height="4.1"/><rect class="cls-1" x="107.61" y="164.79" width="56.43" height="4.14"/><rect class="cls-1" x="167.72" y="164.79" width="47.29" height="4.59"/><rect class="cls-1" x="107.53" y="172.79" width="43.58" height="3.89"/><rect class="cls-1" x="155.28" y="172.79" width="89.91" height="4.31"/><rect class="cls-1" x="74.5" y="183.62" width="56.43" height="4.14"/><rect class="cls-1" x="74.5" y="191.63" width="34.44" height="3.89"/><rect class="cls-1" x="122.83" y="191.63" width="108.38" height="3.91"/><rect class="cls-1" x="92.41" y="199.64" width="47.36" height="4.1"/><rect class="cls-1" x="107.61" y="207.65" width="56.43" height="4.14"/><rect class="cls-1" x="167.72" y="207.65" width="47.29" height="4.59"/><rect class="cls-1" x="107.53" y="215.68" width="43.58" height="3.89"/><rect class="cls-1" x="155.28" y="215.68" width="89.91" height="4.31"/></g><polygon class="cls-5" points="54.66 251.2 0.75 291.78 378.1 291.78 325.4 250.58 54.66 251.2"/><polygon class="cls-6" points="54.66 251.2 0.75 291.78 378.1 291.78 325.4 250.58 54.66 251.2"/><polygon class="cls-5" points="16.19 306.62 0.75 291.78 378.1 291.78 364.16 307.52 16.19 306.62"/><polygon class="cls-2" points="16.19 306.62 0.75 291.78 378.1 291.78 364.16 307.52 16.19 306.62"/><polygon class="cls-7" points="35.27 270.37 340.55 269.97 324.19 256.65 54.05 256.65 35.27 270.37"/><polygon class="cls-7" points="147.02 285.41 163.08 272.7 221.82 272.39 238.79 285.12 147.02 285.41"/><polygon class="cls-3" points="174.65 72.45 190.96 93.29 210.89 73.36 174.65 72.45"/><path class="cls-8" d="M371.64,170.81q-16.15,10.94-24.54,17c-1.87,1.39-3.4,2.46-4.56,3.23a28,28,0,0,1-4.66,2.37,14.29,14.29,0,0,1-5.42,1.21h-.1a14.29,14.29,0,0,1-5.42-1.21,28,28,0,0,1-4.66-2.37c-1.17-.77-2.69-1.84-4.56-3.23q-6.66-4.87-24.5-17a26.06,26.06,0,0,1-5-4.29v39.14a7.89,7.89,0,0,0,7.88,7.88h72.56a7.89,7.89,0,0,0,7.88-7.88V166.52a26.71,26.71,0,0,1-4.93,4.29Z"/><path class="cls-9" d="M293.22,175.87q17.85,12.12,24.5,17c1.87,1.39,3.39,2.46,4.56,3.23a27.3,27.3,0,0,0,4.66,2.37,14.06,14.06,0,0,0,5.42,1.21h.1a14.1,14.1,0,0,0,5.42-1.21,27.3,27.3,0,0,0,4.66-2.37c1.16-.77,2.69-1.84,4.56-3.23q8.37-6.06,24.54-17a27.52,27.52,0,0,0,4.69-4,11.94,11.94,0,0,0,.24-2.38,7.94,7.94,0,0,0-7.88-7.89H296.13a7,7,0,0,0-5.84,2.56,10,10,0,0,0-2,6.41,7.55,7.55,0,0,0,.1,1.15A26.25,26.25,0,0,0,293.22,175.87Z"/><path class="cls-10" d="M293.22,170.91q17.85,12.12,24.5,17,2.8,2.07,4.56,3.22a27.3,27.3,0,0,0,4.66,2.37,14.06,14.06,0,0,0,5.42,1.21h.1a14.1,14.1,0,0,0,5.42-1.21,27.3,27.3,0,0,0,4.66-2.37c1.16-.77,2.69-1.84,4.56-3.22q8.37-6.07,24.54-17a27.52,27.52,0,0,0,4.69-4,11.94,11.94,0,0,0,.24-2.38,7.94,7.94,0,0,0-7.88-7.89H296.13a7,7,0,0,0-5.84,2.56,10,10,0,0,0-2,6.41,7.55,7.55,0,0,0,.1,1.15A26.25,26.25,0,0,0,293.22,170.91Z"/></g></g></svg>
