<svg xmlns="http://www.w3.org/2000/svg" viewBox="0 0 507.73 437.35"><defs><style>.cls-1{fill:#ffb777;}.cls-2{fill:#e0e0e0;}.cls-3{fill:#4460aa;}.cls-4{fill:#f6f6f6;}.cls-5{fill:#fff;}.cls-6{fill:#f0f0f0;opacity:0.5;}.cls-7{fill:#329199;}.cls-8{opacity:0.75;}.cls-9{font-size:72.82px;fill:#64d7c0;font-family:OpenSans-Semibold, Open Sans;font-weight:600;}</style></defs><g id="Layer_2" data-name="Layer 2"><g id="Layer_1-2" data-name="Layer 1"><circle class="cls-1" cx="290.61" cy="217.12" r="217.12"/><polygon class="cls-2" points="273.21 428.95 130.33 428.95 155.27 379.57 254.31 379.57 273.21 428.95"/><rect class="cls-3" x="118.66" y="425.38" width="167.76" height="11.96"/><path class="cls-4" d="M412.73,94.07v282.4a13.17,13.17,0,0,1-13.19,13.15H13.19A13.15,13.15,0,0,1,0,376.47H0V94.07A13.23,13.23,0,0,1,13.21,80.85H399.52A13.23,13.23,0,0,1,412.73,94.07Z"/><path class="cls-3" d="M412.73,94.07V330.22H0V94.07A13.23,13.23,0,0,1,13.21,80.85H399.52A13.23,13.23,0,0,1,412.73,94.07Z"/><rect class="cls-5" x="15.11" y="97.8" width="384.19" height="222.46"/><circle class="cls-3" cx="203.21" cy="359.43" r="9.11"/><rect class="cls-6" x="47.07" y="127.1" width="152.69" height="76.39" rx="6.54"/><rect class="cls-6" x="47.07" y="217.1" width="152.69" height="76.39" rx="6.54"/><rect class="cls-6" x="212.96" y="127.1" width="152.69" height="76.39" rx="6.54"/><rect class="cls-7" x="212.96" y="217.1" width="242.16" height="124.71" rx="6.54"/><rect class="cls-1" x="241.1" y="151.98" width="32.84" height="2.41"/><rect class="cls-1" x="241.1" y="156.65" width="20.05" height="2.26"/><rect class="cls-1" x="269.23" y="156.65" width="63.08" height="2.28"/><rect class="cls-1" x="251.52" y="161.32" width="27.57" height="2.38"/><rect class="cls-1" x="260.37" y="165.98" width="32.84" height="2.41"/><rect class="cls-1" x="295.35" y="165.98" width="27.53" height="2.68"/><rect class="cls-1" x="260.32" y="170.64" width="25.36" height="2.26"/><rect class="cls-1" x="288.12" y="170.64" width="52.33" height="2.51"/><rect class="cls-1" x="241.1" y="176.95" width="32.84" height="2.41"/><rect class="cls-1" x="73.83" y="151.98" width="32.84" height="2.41"/><rect class="cls-1" x="73.83" y="156.65" width="20.05" height="2.26"/><rect class="cls-1" x="101.96" y="156.65" width="63.08" height="2.28"/><rect class="cls-1" x="84.26" y="161.32" width="27.57" height="2.38"/><rect class="cls-1" x="93.1" y="165.98" width="32.84" height="2.41"/><rect class="cls-1" x="128.08" y="165.98" width="27.53" height="2.68"/><rect class="cls-1" x="93.05" y="170.64" width="25.36" height="2.26"/><rect class="cls-1" x="120.85" y="170.64" width="52.33" height="2.51"/><rect class="cls-1" x="73.83" y="176.95" width="32.84" height="2.41"/><g class="cls-8"><rect class="cls-1" x="73.83" y="241.1" width="32.84" height="2.41"/><rect class="cls-1" x="73.83" y="245.76" width="20.05" height="2.26"/><rect class="cls-1" x="101.96" y="245.76" width="63.08" height="2.28"/><rect class="cls-1" x="84.26" y="250.43" width="27.57" height="2.38"/><rect class="cls-1" x="93.1" y="255.09" width="32.84" height="2.41"/><rect class="cls-1" x="128.08" y="255.09" width="27.53" height="2.68"/><rect class="cls-1" x="93.05" y="259.75" width="25.36" height="2.26"/><rect class="cls-1" x="120.85" y="259.75" width="52.33" height="2.51"/><rect class="cls-1" x="73.83" y="266.07" width="32.84" height="2.41"/></g><text class="cls-9" transform="translate(241.35 302.66)">SMTP</text></g></g></svg>
